<svg xmlns="http://www.w3.org/2000/svg" viewBox="0 0 420 560" role="img" aria-label="Zhang Leyan default resume template preview">
  <rect width="420" height="560" fill="#ffffff"/>
  <rect x="32" y="30" width="356" height="500" fill="#ffffff" stroke="#d5d5d5"/>
  <text x="48" y="72" fill="#111111" font-family="Arial, sans-serif" font-size="28" font-weight="700">Zhang Leyan</text>
  <text x="49" y="98" fill="#555555" font-family="Arial, sans-serif" font-size="12">Phone / Email / Location / Portfolio</text>
  <rect x="312" y="46" width="52" height="68" fill="#f6f6f6" stroke="#999999"/>
  <text x="326" y="84" fill="#777777" font-family="Arial, sans-serif" font-size="10">Photo</text>
  <line x1="48" y1="128" x2="364" y2="128" stroke="#b8b8b8" stroke-width="1"/>

  <g font-family="Arial, sans-serif">
    <rect x="48" y="154" width="316" height="23" fill="#f2f2f2"/>
    <text x="58" y="170" fill="#333333" font-size="13" font-weight="700">Target Role</text>
    <line x1="58" y1="195" x2="340" y2="195" stroke="#d8d8d8"/>
    <line x1="58" y1="212" x2="300" y2="212" stroke="#e3e3e3"/>

    <rect x="48" y="242" width="316" height="23" fill="#f2f2f2"/>
    <text x="58" y="258" fill="#333333" font-size="13" font-weight="700">Experience</text>
    <text x="58" y="287" fill="#111111" font-size="13" font-weight="700">Company / Role</text>
    <text x="302" y="287" fill="#555555" font-size="11">2024</text>
    <line x1="58" y1="305" x2="336" y2="305" stroke="#dedede"/>
    <line x1="58" y1="322" x2="318" y2="322" stroke="#e6e6e6"/>
    <line x1="58" y1="339" x2="342" y2="339" stroke="#e6e6e6"/>

    <rect x="48" y="372" width="316" height="23" fill="#f2f2f2"/>
    <text x="58" y="388" fill="#333333" font-size="13" font-weight="700">Projects</text>
    <line x1="58" y1="417" x2="342" y2="417" stroke="#dedede"/>
    <line x1="58" y1="434" x2="326" y2="434" stroke="#e6e6e6"/>
    <line x1="58" y1="451" x2="288" y2="451" stroke="#e6e6e6"/>

    <rect x="48" y="484" width="316" height="23" fill="#f2f2f2"/>
    <text x="58" y="500" fill="#333333" font-size="13" font-weight="700">Education / Skills</text>
  </g>
</svg>
